<?xml version="1.0" encoding="utf-8"?>
<!-- Generator: Adobe Illustrator 16.0.0, SVG Export Plug-In . SVG Version: 6.00 Build 0)  -->
<!DOCTYPE svg PUBLIC "-//W3C//DTD SVG 1.1//EN" "http://www.w3.org/Graphics/SVG/1.1/DTD/svg11.dtd">
<svg version="1.1" xmlns="http://www.w3.org/2000/svg" xmlns:xlink="http://www.w3.org/1999/xlink" x="0px" y="0px" width="192px"
	 height="192px" viewBox="0 0 192 192" enable-background="new 0 0 192 192" xml:space="preserve">
<g id="Layer_2">
</g>
<g id="Layer_1">
</g>
<g id="Layer_3">
	<path fill="#FFFFFF" d="M187.761,74.754c-9.529-42.74-47.659-74.63-93.27-74.63s-82.6,31.89-92.12,74.63
		c-1.53,6.75-1.17,13.77-1.17,20.939v94.98h48v-12.56c0,0.5,0.01,0.909,0.83,1.369c13.67,7.49,28.54,11.79,45.25,11.79
		c16.7,0,31.97-4.3,45.64-11.79c29.53-16.29,49.34-47.71,49.34-83.79C190.261,88.523,189.281,81.504,187.761,74.754z
		 M77.892,137.674c0-8.84,6.439-16.17,14.88-17.57c-4.36-1.37-7.53-5.439-7.53-10.26c0-5.95,4.82-10.77,10.76-10.77
		c5.94,0,10.76,4.819,10.76,10.77c0,4.89-3.27,9.021-7.739,10.32c8.26,1.55,14.51,8.8,14.51,17.51H77.892z M21.961,72.674
		c9.061-31,38.12-54.57,72.53-54.57s63.47,23.57,72.53,54.57H21.961z"/>
</g>
</svg>
