<?xml version="1.0" encoding="utf-8"?>
<!-- Generator: Adobe Illustrator 16.0.0, SVG Export Plug-In . SVG Version: 6.00 Build 0)  -->
<!DOCTYPE svg PUBLIC "-//W3C//DTD SVG 1.1//EN" "http://www.w3.org/Graphics/SVG/1.1/DTD/svg11.dtd">
<svg version="1.1" id="Layer_1" xmlns="http://www.w3.org/2000/svg" xmlns:xlink="http://www.w3.org/1999/xlink" x="0px" y="0px"
	 width="1280px" height="720px" viewBox="0 0 1280 720" enable-background="new 0 0 1280 720" xml:space="preserve">
<g id="Layer_2">
</g>
<g id="Layer_1_1_">
	<rect fill="#062863" width="1280" height="720"/>
	<path fill="#10AA58" d="M1153.883,3.121l-8.391,2.534l-87.133,26.158l20.782,87.979l2.246,9.529
		c6.987,24.358,23.052,46.056,46.677,59.696c1.021,0.59,2.047,1.135,3.077,1.649c47.966,25.603,107.898,8.694,135.278-38.729
		c27.365-47.398,12.057-107.782-34.099-136.519c-0.964-0.636-1.946-1.251-2.97-1.841C1205.574-0.151,1178.545-3.136,1153.883,3.121z
		 M1201.693,48.911c25.938,16.154,34.547,50.084,19.166,76.723c-15.392,26.656-49.067,36.148-76.031,21.771
		c-0.578-0.299-1.15-0.607-1.725-0.938c-13.273-7.665-22.311-19.856-26.24-33.545l-1.264-5.358l-11.682-49.446l48.975-14.703
		l4.723-1.419c13.854-3.515,29.047-1.832,42.41,5.883C1200.598,48.209,1201.15,48.551,1201.693,48.911z"/>
</g>
<g id="Layer_3">
	<g>
		
			<rect x="1162.533" y="523.405" transform="matrix(0.866 -0.5 0.5 0.866 -153.2715 674.777)" fill="#7900DB" width="40.001" height="199.992"/>
		
			<rect x="1163.403" y="522.983" transform="matrix(-0.5 -0.866 0.866 -0.5 1235.611 1959.3234)" fill="#7900DB" width="39.999" height="199.99"/>
	</g>
	<path fill="#2194F1" d="M89.5,0C40.07,0,0,40.07,0,89.5S40.07,179,89.5,179c49.43,0,89.5-40.07,89.5-89.5S138.93,0,89.5,0z
		 M89.5,150.5c-33.69,0-61-27.31-61-61s27.31-61,61-61s61,27.31,61,61S123.19,150.5,89.5,150.5z"/>
	<path fill="#E34899" d="M175.027,692.453c55.243-31.896,87.936-78.689,73.025-104.517l-48-83.139L0,620.299l48,83.14
		C62.911,729.262,119.783,724.348,175.027,692.453z M40.877,629.512l136.832-79l27.41,47.478c8.39,14.531-15.601,44.1-53.222,65.817
		c-37.619,21.72-75.221,27.714-83.61,13.183L40.877,629.512z"/>
</g>
</svg>
